<svg width="147" height="38" viewBox="0 0 147 38" fill="none" xmlns="http://www.w3.org/2000/svg">
<rect width="47" height="38" fill="#EE964B"/>
<path d="M20.808 28V24.712H11.688V21.184H19.608V17.896H11.688V14.488H20.688V11.2H8.016V28H20.808ZM39.0221 28V11.2H35.3741V21.544L27.5021 11.2H24.0941V28H27.7421V17.32L35.8781 28H39.0221Z" fill="white"/>
<path d="M67.496 19.6V19.552C67.496 14.824 63.848 11.2 58.568 11.2H52.016V28H58.568C63.848 28 67.496 24.328 67.496 19.6ZM63.632 19.648C63.632 22.624 61.592 24.664 58.568 24.664H55.712V14.536H58.568C61.592 14.536 63.632 16.624 63.632 19.6V19.648ZM83.5814 28V24.712H74.4614V21.184H82.3814V17.896H74.4614V14.488H83.4614V11.2H70.7894V28H83.5814ZM101.628 25.288L99.2756 22.912C97.9556 24.112 96.7796 24.88 94.8596 24.88C91.9796 24.88 89.9876 22.48 89.9876 19.6V19.552C89.9876 16.672 92.0276 14.32 94.8596 14.32C96.5396 14.32 97.8596 15.04 99.1556 16.216L101.508 13.504C99.9476 11.968 98.0516 10.912 94.8836 10.912C89.7236 10.912 86.1236 14.824 86.1236 19.6V19.648C86.1236 24.472 89.7956 28.288 94.7396 28.288C97.9796 28.288 99.8996 27.136 101.628 25.288ZM121.23 19.6V19.552C121.23 14.776 117.51 10.912 112.326 10.912C107.142 10.912 103.374 14.824 103.374 19.6V19.648C103.374 24.424 107.094 28.288 112.278 28.288C117.462 28.288 121.23 24.376 121.23 19.6ZM117.366 19.648C117.366 22.528 115.302 24.88 112.326 24.88C109.35 24.88 107.238 22.48 107.238 19.6V19.552C107.238 16.672 109.302 14.32 112.278 14.32C115.254 14.32 117.366 16.72 117.366 19.6V19.648ZM139.028 28L134.924 22C137.06 21.208 138.524 19.504 138.524 16.792V16.744C138.524 13.288 136.148 11.2 132.188 11.2H124.508V28H128.204V22.624H131.108L134.708 28H139.028ZM134.78 16.984C134.78 18.4 133.748 19.36 131.948 19.36H128.204V14.536H131.876C133.676 14.536 134.78 15.352 134.78 16.936V16.984ZM145.212 28V24.16H141.324V28H145.212Z" fill="#FAF0CA"/>
</svg>
