<svg width="30" height="29" viewBox="0 0 30 29" fill="none" xmlns="http://www.w3.org/2000/svg">
<path d="M27.4861 0H1.84719C1.42531 0 1.0207 0.167477 0.722382 0.465588C0.424063 0.763699 0.25647 1.16802 0.25647 1.58962V27.2111C0.256576 27.6326 0.424217 28.0368 0.722524 28.3348C1.02083 28.6329 1.42538 28.8003 1.84719 28.8003H15.6502V17.6474H11.8943V13.3009H15.6502V10.0953C15.6502 6.37526 17.9238 4.35004 21.2445 4.35004C22.8352 4.35004 24.2022 4.46805 24.6009 4.52125V8.40889L22.2977 8.41009C20.4916 8.41009 20.1421 9.26769 20.1421 10.5261V13.3013H24.4492L23.8884 17.6478H20.1421V28.8003H27.4865C27.9083 28.8002 28.3128 28.6327 28.6111 28.3346C28.9093 28.0365 29.0768 27.6322 29.0768 27.2107V1.58962C29.0768 1.16802 28.9093 0.763699 28.6109 0.465588C28.3126 0.167477 27.908 0 27.4861 0Z" fill="#0D3B66"/>
</svg>
