<svg width="32" height="29" viewBox="0 0 32 29" fill="none" xmlns="http://www.w3.org/2000/svg">
<path d="M24.8532 11.8766C25.2004 11.7905 25.5307 11.5596 25.8713 11.553C26.3962 11.5399 26.9891 11.5346 27.436 11.7572C28.2116 12.1439 28.2731 12.987 27.564 13.5C26.9961 13.9068 26.3116 14.1754 25.6489 14.4296C24.1741 14.9988 23.978 15.4273 24.7236 16.8232C25.9596 19.1355 27.69 20.8566 30.3376 21.4938C30.6117 21.5586 31.052 21.8608 31.0385 22.02C31.0085 22.3816 30.8308 22.9131 30.5567 23.039C29.6663 23.4556 28.7229 23.8091 27.7647 24.0149C27.1668 24.1379 26.9423 24.3586 26.8164 24.9212C26.5472 26.1079 26.3112 26.2555 25.1602 26.0251C23.3296 25.6564 21.7202 25.9738 20.1605 27.099C17.0131 29.3745 14.6675 29.3646 11.5266 27.0859C9.99521 25.9705 8.40879 25.6585 6.60529 26.0288C5.39599 26.276 5.18835 26.13 4.89946 24.9003C4.78005 24.3975 4.59211 24.1383 4.00571 24.0272C3.08728 23.8516 2.1945 23.5616 1.34827 23.164C1.00932 23.0082 0.740542 22.4702 0.674065 22.0737C0.647393 21.9109 1.21409 21.5377 1.56084 21.4413C4.41114 20.663 6.14693 18.7144 7.31438 16.1314C7.59014 15.5204 7.35747 15.0874 6.8511 14.8036C6.3993 14.5547 5.88759 14.4136 5.40584 14.2127C5.10177 14.0848 4.79113 13.9572 4.51209 13.7846C3.94416 13.4344 3.46733 12.9993 3.79602 12.246C4.06357 11.6268 4.94542 11.2984 5.63974 11.5206C6.03326 11.6453 6.41858 11.8077 6.81909 11.8958C7.34393 12.0086 7.63979 11.8593 7.61968 11.2168C7.57332 9.75776 7.49001 8.28726 7.60819 6.83481C7.85728 3.76588 9.65298 1.74056 12.4167 0.66332C16.4115 -0.887138 21.1818 0.283189 23.3362 4.1456C24.092 5.50004 24.2065 6.96562 24.2697 8.46113C24.2098 9.39895 24.1618 10.3351 24.0871 11.268C24.0412 11.8766 24.36 11.9992 24.8532 11.8766Z" fill="#0D3B66"/>
</svg>
