<svg width="29" height="29" viewBox="0 0 29 29" fill="none" xmlns="http://www.w3.org/2000/svg">
<path d="M26.0184 0H2.80198C1.26089 0 0 1.26001 0 2.80003V26.0003C0 27.5403 1.26089 28.8003 2.80198 28.8003H26.0184C27.5595 28.8003 28.8204 27.5403 28.8204 26.0003V2.80003C28.8204 1.26001 27.5595 0 26.0184 0ZM17.0441 4.18804H18.3102V9.34489C18.3102 9.6433 18.3102 9.7981 18.3258 9.8389C18.3538 10.0357 18.4531 10.1361 18.6236 10.1361C18.8774 10.1361 19.1443 9.9393 19.4257 9.5417V4.18804H20.6962V11.1921H19.4257V10.4281C18.9202 11.0077 18.4378 11.2893 17.9747 11.2893C17.5656 11.2893 17.2834 11.1233 17.1565 10.7681C17.0865 10.5565 17.0441 10.2209 17.0441 9.7265V4.18804ZM12.2459 6.47127C12.2459 5.72286 12.3736 5.17525 12.6437 4.82125C12.9952 4.34284 13.4899 4.10324 14.1224 4.10324C14.7588 4.10324 15.2528 4.34284 15.6046 4.82125C15.8704 5.17525 15.9989 5.72286 15.9989 6.47127V8.92529C15.9989 9.6693 15.8708 10.2213 15.6046 10.5729C15.2528 11.0501 14.7592 11.2897 14.1224 11.2897C13.4895 11.2897 12.9948 11.0501 12.6437 10.5729C12.3736 10.2213 12.2459 9.6693 12.2459 8.92529V6.47127ZM8.84906 1.79282L9.84937 5.48366L10.8096 1.79282H12.2339L10.5399 7.38568V11.1921H9.13086V7.38568C9.00357 6.71047 8.72177 5.72246 8.27025 4.41164C7.97324 3.53964 7.66382 2.66363 7.36721 1.79282H8.84906ZM24.4465 24.6074C24.1927 25.7127 23.2873 26.5279 22.1985 26.6491C19.6191 26.9371 17.0088 26.9387 14.4102 26.9371C11.8112 26.9387 9.20091 26.9371 6.62188 26.6491C5.53271 26.5275 4.62888 25.7123 4.3747 24.6074C4.01244 23.033 4.01244 21.3146 4.01244 19.6946C4.01244 18.073 4.01644 16.3558 4.3791 14.7809C4.63288 13.6761 5.53712 12.8613 6.62629 12.7397C9.20531 12.4509 11.8156 12.4501 14.4146 12.4509C17.0132 12.4501 19.6235 12.4509 22.2029 12.7397C23.2913 12.8613 24.1963 13.6761 24.4505 14.7809C24.8128 16.3562 24.8108 18.073 24.8108 19.6946C24.8112 21.3146 24.8092 23.033 24.4465 24.6074Z" fill="#0D3B66"/>
</svg>
