<svg width="36" height="29" viewBox="0 0 36 29" fill="none" xmlns="http://www.w3.org/2000/svg">
<path d="M35.7597 3.4095C34.4318 3.99735 33.0233 4.38302 31.581 4.55367C33.1002 3.64533 34.237 2.21599 34.7796 0.532047C33.3517 1.37915 31.7891 1.97566 30.1597 2.29571C29.4789 1.57009 28.6563 0.991926 27.7427 0.597032C26.8292 0.202137 25.8442 -0.00106966 24.8489 4.23431e-06C20.8309 4.23431e-06 17.5729 3.25485 17.5729 7.27095C17.5729 7.84027 17.6374 8.39579 17.7617 8.92829C11.7145 8.62499 6.35349 5.73005 2.76475 1.33057C2.11769 2.44025 1.77768 3.70197 1.7796 4.9863C1.77865 6.1834 2.07362 7.3622 2.63831 8.41796C3.20299 9.47372 4.01991 10.3737 5.01646 11.0381C3.86123 11.0014 2.73145 10.6896 1.72111 10.1286C1.72019 10.159 1.72019 10.1889 1.72019 10.2202C1.72019 13.742 4.22797 16.6807 7.55602 17.3494C6.4844 17.6393 5.36083 17.6818 4.27034 17.4737C5.19608 20.3617 7.88302 22.4646 11.0669 22.5235C8.48955 24.5447 5.30686 25.641 2.03061 25.6361C1.44339 25.6361 0.864459 25.602 0.294739 25.5344C3.62156 27.6705 7.49345 28.8042 11.4478 28.8003C24.8309 28.8003 32.1493 17.7217 32.1493 8.11458C32.1493 7.79977 32.142 7.48543 32.1281 7.17292C33.5534 6.14468 34.7832 4.87017 35.7597 3.4095Z" fill="#0D3B66"/>
</svg>
