<svg width="38" height="38" viewBox="0 0 38 38" fill="none" xmlns="http://www.w3.org/2000/svg">
<path d="M37.6296 17.6766C37.0359 7.85034 28.906 0.0612571 18.9446 0H18.7216C15.2032 0.0251311 11.911 1.00525 9.10105 2.70788C6.50366 4.27812 4.32275 6.45095 2.74287 9.0425C0.736942 12.3343 -0.207375 16.1637 0.0381366 20.0107C0.220762 23.0632 1.15007 26.0243 2.74445 28.6338C4.31514 31.2223 6.48898 33.393 9.06493 34.9684C11.9755 36.7128 15.3001 37.6457 18.6933 37.67H18.976C28.9389 37.6025 37.0359 29.8322 37.6516 20.0154C37.6736 19.6384 37.6987 19.2363 37.6987 18.8609C37.6987 18.4855 37.6987 18.0834 37.6736 17.708L37.6312 17.6735L37.6296 17.6766ZM18.8504 24.5563V30.572C19.0011 34.2475 17.9551 34.86 16.6985 34.9166C16.6451 34.9166 16.5948 34.9213 16.5414 34.9229C12.2876 34.3139 8.44797 32.0451 5.86242 28.6127C3.27688 25.1803 2.15582 20.8637 2.74445 16.607C3.2278 13.1164 4.83278 9.87761 7.31743 7.3788C9.80207 4.87999 13.0317 3.25662 16.5194 2.75343L16.7001 2.76914C17.9566 2.83668 19.0011 3.44454 18.8519 7.11054V13.1232C18.8362 15.5939 20.2577 17.9483 21.7687 18.8405C20.2577 19.7201 18.8347 21.7856 18.8504 24.5484V24.5563Z" fill="#D3A13B" fill-opacity="0.62"/>
</svg>
