<svg width="29" height="29" viewBox="0 0 29 29" fill="none" xmlns="http://www.w3.org/2000/svg">
<path d="M27.637 17.4589C27.8418 16.5218 27.9511 15.55 27.9511 14.5517C27.9511 7.07155 21.8832 1.00717 14.3971 1.00717C13.6073 1.00717 12.8338 1.07577 12.0798 1.20595C10.8285 0.416315 9.37843 -0.00189472 7.89849 6.45328e-06C3.55812 6.45328e-06 0.038147 3.51605 0.038147 7.85523C0.038147 9.30458 0.432659 10.6614 1.11909 11.8264C0.93627 12.7234 0.844283 13.6366 0.844516 14.5521C0.844516 22.0319 6.91166 28.0959 14.3971 28.0959C15.2455 28.0959 16.0744 28.0166 16.8804 27.8691C18.0224 28.4818 19.2987 28.8017 20.5948 28.8003C24.9359 28.8003 28.4552 25.2854 28.4552 20.9462C28.4565 19.7361 28.1764 18.5423 27.637 17.4589ZM21.3495 21.0251C20.7218 21.9106 19.7951 22.6135 18.5957 23.1117C17.4063 23.6066 15.9825 23.857 14.3594 23.857C12.4138 23.857 10.7815 23.5133 9.50754 22.8384C8.5971 22.3457 7.84609 21.6812 7.27628 20.8595C6.70019 20.0301 6.40754 19.2062 6.40754 18.4122C6.40754 17.9169 6.59871 17.4865 6.97366 17.1344C7.34492 16.7851 7.82025 16.6074 8.38822 16.6074C8.85359 16.6074 9.25585 16.7475 9.58172 17.0226C9.89356 17.2874 10.1615 17.6776 10.3755 18.1836C10.6162 18.7323 10.8786 19.197 11.155 19.5628C11.4199 19.9128 11.8034 20.2097 12.292 20.4402C12.7825 20.6729 13.4453 20.7913 14.2601 20.7913C15.3806 20.7913 16.2999 20.5519 16.9896 20.0795C17.6653 19.6189 17.9934 19.0664 17.9934 18.3893C17.9934 17.855 17.8214 17.4342 17.469 17.1052C17.1007 16.7608 16.6147 16.4923 16.0238 16.3086C15.4079 16.1165 14.5705 15.9096 13.5364 15.6928C12.1304 15.3918 10.9358 15.0348 9.98435 14.6306C9.01265 14.2176 8.22879 13.6445 7.6564 12.9279C7.07478 12.1992 6.77954 11.2861 6.77954 10.2129C6.77954 9.18988 7.0888 8.26828 7.69994 7.47206C8.30629 6.68174 9.19164 6.06808 10.3301 5.64692C11.4557 5.23055 12.7939 5.02108 14.307 5.02108C15.5175 5.02108 16.5818 5.16085 17.4697 5.43597C18.3632 5.71551 19.1161 6.0891 19.7084 6.5523C20.3033 7.01771 20.7476 7.51521 21.0248 8.03188C21.3071 8.55409 21.4499 9.07445 21.4499 9.57748C21.4499 10.0613 21.2628 10.5002 20.8934 10.8841C20.5221 11.2695 20.0546 11.4646 19.5017 11.4646C18.9998 11.4646 18.6068 11.3429 18.3344 11.1021C18.0805 10.8778 17.817 10.5282 17.5258 10.0256C17.1874 9.3846 16.7793 8.87862 16.3098 8.52164C15.8541 8.17571 15.0923 8.00017 14.0472 8.00017C13.0744 8.00017 12.2843 8.19452 11.6986 8.57917C11.1328 8.94943 10.8586 9.37354 10.8586 9.87768C10.8586 10.1864 10.9468 10.4438 11.1284 10.6654C11.3221 10.9014 11.5927 11.1061 11.937 11.2791C12.2931 11.4576 12.6596 11.6003 13.0271 11.7013C13.4051 11.8064 14.0358 11.9613 14.9034 12.1609C15.9991 12.3972 17.0077 12.6602 17.8986 12.9453C18.8009 13.234 19.5814 13.5903 20.2173 14.0041C20.8668 14.4256 21.3809 14.9688 21.7466 15.6164C22.1116 16.2673 22.2965 17.0687 22.2965 18.0014C22.2965 19.1173 21.978 20.1345 21.3495 21.0251Z" fill="#0D3B66"/>
</svg>
