<svg width="39" height="38" viewBox="0 0 39 38" fill="none" xmlns="http://www.w3.org/2000/svg">
<path d="M26.369 3.767C26.369 1.67631 28.0453 0 30.136 0C32.2267 0 33.903 1.67631 33.903 3.767C33.903 5.85768 32.2267 7.534 30.136 7.534C28.0453 7.534 26.369 5.85768 26.369 3.767ZM33.903 37.67V26.369H38.6118L33.8277 11.9979C33.5757 11.2477 33.095 10.5954 32.4531 10.1325C31.8112 9.66968 31.0404 9.41962 30.249 9.4175H30.023C29.2309 9.41678 28.4588 9.66573 27.8164 10.129C27.1739 10.5922 26.6938 11.2462 26.4443 11.9979L24.8245 16.8573C26.8587 17.9874 28.2525 20.1158 28.2525 22.602V37.67H33.903ZM19.7768 17.8932C21.3401 17.8932 22.602 16.6313 22.602 15.068C22.602 13.5047 21.3401 12.2427 19.7768 12.2427C18.2134 12.2427 16.9515 13.5047 16.9515 15.068C16.9515 16.6313 18.2134 17.8932 19.7768 17.8932ZM6.59225 7.534C8.68294 7.534 10.3593 5.85768 10.3593 3.767C10.3593 1.67631 8.68294 0 6.59225 0C4.50156 0 2.82525 1.67631 2.82525 3.767C2.82525 5.85768 4.50156 7.534 6.59225 7.534ZM10.3593 37.67V24.4855H13.1845V13.1845C13.1845 11.1126 11.4894 9.4175 9.4175 9.4175H3.767C1.69515 9.4175 0 11.1126 0 13.1845V24.4855H2.82525V37.67H10.3593ZM22.602 37.67V30.136H24.4855V22.602C24.4855 21.0575 23.2047 19.7767 21.6603 19.7767H17.8933C16.3488 19.7767 15.068 21.0575 15.068 22.602V30.136H16.9515V37.67H22.602Z" fill="#D3A13B" fill-opacity="0.62"/>
</svg>
