<svg width="33" height="38" viewBox="0 0 33 38" fill="none" xmlns="http://www.w3.org/2000/svg">
<path d="M7.42679 0C8.4259 0 9.38408 0.396894 10.0906 1.10337C10.797 1.80985 11.1939 2.76803 11.1939 3.76714C11.1939 4.76625 10.797 5.72444 10.0906 6.43092C9.38408 7.13739 8.4259 7.53429 7.42679 7.53429C6.42768 7.53429 5.46949 7.13739 4.76302 6.43092C4.05654 5.72444 3.65965 4.76625 3.65965 3.76714C3.65965 2.76803 4.05654 1.80985 4.76302 1.10337C5.46949 0.396894 6.42768 0 7.42679 0ZM4.60143 9.41786H10.2521C11.2513 9.41786 12.2094 9.81475 12.9159 10.5212C13.6224 11.2277 14.0193 12.1859 14.0193 13.185V23.5446H11.1939V37.6714H3.65965V23.5446H0.83429V13.185C0.83429 12.1859 1.23118 11.2277 1.93766 10.5212C2.64414 9.81475 3.60232 9.41786 4.60143 9.41786ZM24.3789 0C25.378 0 26.3362 0.396894 27.0427 1.10337C27.7492 1.80985 28.1461 2.76803 28.1461 3.76714C28.1461 4.76625 27.7492 5.72444 27.0427 6.43092C26.3362 7.13739 25.378 7.53429 24.3789 7.53429C23.3798 7.53429 22.4216 7.13739 21.7152 6.43092C21.0087 5.72444 20.6118 4.76625 20.6118 3.76714C20.6118 2.76803 21.0087 1.80985 21.7152 1.10337C22.4216 0.396894 23.3798 0 24.3789 0ZM21.5536 37.6714V26.37H15.9029L20.7813 12.0737C21.2522 10.5292 22.6837 9.41786 24.3789 9.41786C26.0741 9.41786 27.5057 10.5292 27.9766 12.0737L32.855 26.37H27.2043V37.6714H21.5536Z" fill="#D3A13B" fill-opacity="0.62"/>
</svg>
