<svg width="76" height="38" viewBox="0 0 76 38" fill="none" xmlns="http://www.w3.org/2000/svg">
<path d="M11.8091 26.3601C8.70455 26.3601 6.18233 28.898 6.18233 32.0166C6.17983 33.512 6.77104 34.9472 7.82608 36.0069C8.88111 37.0667 10.3137 37.6643 11.8091 37.6684C13.3058 37.6655 14.7401 37.0684 15.7967 36.0082C16.8533 34.9481 17.4457 33.5118 17.4436 32.015C17.4453 30.5183 16.8528 29.082 15.7964 28.0217C14.7399 26.9614 13.3058 26.3638 11.8091 26.3601ZM11.8091 34.9312C11.0609 34.9287 10.3443 34.6292 9.81692 34.0985C9.2895 33.5679 8.9944 32.8495 8.99648 32.1013C8.99606 31.354 9.2918 30.6369 9.81894 30.1071C10.3461 29.5773 11.0617 29.278 11.8091 29.2746C12.5578 29.2759 13.2754 29.5743 13.8042 30.1043C14.3331 30.6343 14.6299 31.3526 14.6295 32.1013C14.6305 32.4725 14.5583 32.8401 14.4171 33.1833C14.2758 33.5265 14.0683 33.8385 13.8063 34.1013C13.5443 34.3642 13.233 34.5728 12.8903 34.7152C12.5476 34.8576 12.1802 34.931 11.8091 34.9312ZM61.3164 26.3601C58.2072 26.3601 55.6865 28.898 55.6865 32.0166C55.6836 33.5128 56.275 34.9489 57.3308 36.0091C58.3866 37.0692 59.8202 37.6667 61.3164 37.67C64.424 37.67 66.9509 35.1384 66.9509 32.0166C66.9526 30.5197 66.3602 29.0833 65.3038 28.0227C64.2474 26.9622 62.8133 26.3642 61.3164 26.3601ZM61.3164 34.9312C60.5679 34.9287 59.851 34.6293 59.3231 34.0987C58.7952 33.5682 58.4994 32.8498 58.5006 32.1013C58.5006 31.3536 58.7969 30.6362 59.3247 30.1064C59.8524 29.5766 60.5686 29.2776 61.3164 29.2746C62.8733 29.2746 64.1368 30.5444 64.1368 32.1013C64.1374 32.4723 64.0649 32.8398 63.9235 33.1828C63.7821 33.5258 63.5746 33.8376 63.3127 34.1004C63.0508 34.3632 62.7397 34.5718 62.3971 34.7143C62.0546 34.8569 61.6874 34.9306 61.3164 34.9312ZM73.7783 0H24.2663C23.8523 0.00124694 23.4556 0.16671 23.1634 0.460079C22.8712 0.753447 22.7074 1.15075 22.7078 1.56481V15.7564H19.5892V7.044C19.5896 6.83878 19.5495 6.6355 19.4713 6.44577C19.3931 6.25604 19.2783 6.08358 19.1334 5.93825C18.9885 5.79293 18.8164 5.67758 18.6269 5.59881C18.4374 5.52004 18.2343 5.47939 18.0291 5.47919H7.40656C5.55453 5.47919 3.90026 6.84781 3.60362 8.80656V8.70455L1.94621 18.1013L1.94934 18.1342C1.40319 18.228 0.907841 18.512 0.551052 18.9361C0.194262 19.3601 -0.000946512 19.8967 3.45088e-06 20.4508L0.0517975 20.9531L3.45088e-06 20.9389L2.33859 31.5096H4.77448V31.4139C4.77448 27.6251 7.87427 24.5567 11.6961 24.5567C15.5147 24.5567 18.6161 27.6251 18.6161 31.4139V31.5096H54.2849V31.4139C54.2849 27.6251 57.3863 24.5567 61.2018 24.5567C65.0236 24.5567 68.1249 27.6251 68.1249 31.4139L68.1187 31.5096H75.3369V1.56481C75.3373 1.35973 75.2973 1.15657 75.2192 0.966945C75.1411 0.777316 75.0264 0.604927 74.8817 0.459621C74.737 0.314315 74.565 0.198937 74.3757 0.120076C74.1864 0.0412135 73.9834 0.00041181 73.7783 0ZM14.1304 8.02181V15.7564H4.77605L5.94534 9.19423C6.04265 8.40948 6.72539 7.83033 7.40656 7.83033H14.1304V8.02181Z" fill="#D3A13B" fill-opacity="0.62"/>
</svg>
